<svg xmlns="http://www.w3.org/2000/svg" viewBox="0 0 16 16"><path fill="#EB0052" fill-rule="evenodd" d="M11.984 3V2c0-1.11-.89-2-1.997-2H5.992C4.884 0 3.995.89 3.995 2v1H.999c-.312 0-.546.102-.703.297-.195.195-.296.469-.296.805C.055 4.648.492 5 1.046 5H14.98c.609 0 1.108-.555 1.007-1.148A1.06 1.06 0 0 0 14.949 3h-2.965zM6.008 3V2h3.995v1H6.008zM2.965 14.203C3.004 15.211 3.862 16 4.908 16h6.14c1.046 0 1.904-.79 1.997-1.797L13.795 6H2.214l.75 8.203zM10.003 14V8H11v6h-.998zm-2.497 0V8h.998v6h-.998zm-2.497 0V8h.999v6h-.999z"/></svg>